<svg xmlns="http://www.w3.org/2000/svg" viewBox="0 0 120 124">
<defs>
  <radialGradient id="b" cx="40%" cy="32%" r="78%">
    <stop offset="0%" stop-color="#ffd79a"/>
    <stop offset="55%" stop-color="#f5a94e"/>
    <stop offset="100%" stop-color="#d97f2e"/>
  </radialGradient>
  <radialGradient id="ch" cx="50%" cy="50%" r="50%">
    <stop offset="0%" stop-color="#ff9ec4"/><stop offset="100%" stop-color="#ff9ec400"/>
  </radialGradient>
</defs>
<ellipse cx="60" cy="116" rx="34" ry="7" fill="#000000" opacity="0.16"/>
<g stroke="#a85e1c" stroke-width="2.4" stroke-linejoin="round">
  <path d="M30 44 L24 18 L48 36 Z" fill="#f5a94e"/>
  <path d="M90 44 L96 18 L72 36 Z" fill="#f5a94e"/>
</g>
<path d="M33 22 L29 34 L41 31 Z" fill="#ff9ec4"/>
<path d="M87 22 L91 34 L79 31 Z" fill="#ff9ec4"/>
<circle cx="60" cy="64" r="42" fill="url(#b)" stroke="#a85e1c" stroke-width="2.6"/>
<path d="M44 50 q6 8 0 16 M76 50 q-6 8 0 16" stroke="#d97f2e" stroke-width="3" fill="none" opacity="0.5" stroke-linecap="round"/>
<circle cx="38" cy="70" r="9" fill="url(#ch)" opacity="0.85"/>
  <circle cx="82" cy="70" r="9" fill="url(#ch)" opacity="0.85"/>
<ellipse cx="47" cy="60" rx="8" ry="8.64" fill="#fff"/>
  <circle cx="47" cy="60.512" r="4.96" fill="#26203a"/>
  <circle cx="45.24" cy="58.432" r="1.92" fill="#fff"/>
<ellipse cx="73" cy="60" rx="8" ry="8.64" fill="#fff"/>
  <circle cx="73" cy="60.512" r="4.96" fill="#26203a"/>
  <circle cx="71.24" cy="58.432" r="1.92" fill="#fff"/>
<path d="M60 72 l-4 5 4 4 4-4 z" fill="#ff8fb0"/>
<path d="M60 81 q-7 6 -13 3 M60 81 q7 6 13 3" stroke="#a85e1c" stroke-width="2.2" fill="none" stroke-linecap="round"/>
<g stroke="#c9893f" stroke-width="1.6" stroke-linecap="round" opacity="0.8">
  <path d="M30 74 H10 M32 80 H13"/><path d="M90 74 H110 M88 80 H107"/>
</g>
</svg>