<svg xmlns="http://www.w3.org/2000/svg" viewBox="0 0 120 124">
<defs>
  <radialGradient id="b" cx="40%" cy="32%" r="78%">
    <stop offset="0%" stop-color="#cdeeff"/>
    <stop offset="55%" stop-color="#74c4ec"/>
    <stop offset="100%" stop-color="#3f93c4"/>
  </radialGradient>
  <radialGradient id="ch" cx="50%" cy="50%" r="50%">
    <stop offset="0%" stop-color="#ff9ec4"/><stop offset="100%" stop-color="#ff9ec400"/>
  </radialGradient>
</defs>
<ellipse cx="60" cy="116" rx="34" ry="7" fill="#000000" opacity="0.16"/>
<g stroke="#2f78a6" stroke-width="2.2" fill="#74c4ec">
  <path d="M52 24 q-3 -12 4 -16 q3 8 0 14 Z"/>
  <path d="M60 22 q0 -13 7 -15 q1 9 -3 15 Z"/>
</g>
<circle cx="60" cy="64" r="42" fill="url(#b)" stroke="#2f78a6" stroke-width="2.6"/>
<path d="M24 64 q-14 4 -12 20 q14 0 18 -10 Z" fill="#5ab0d8" stroke="#2f78a6" stroke-width="2.2"/>
<path d="M96 64 q14 4 12 20 q-14 0 -18 -10 Z" fill="#5ab0d8" stroke="#2f78a6" stroke-width="2.2"/>
<circle cx="38" cy="70" r="9" fill="url(#ch)" opacity="0.85"/>
  <circle cx="82" cy="70" r="9" fill="url(#ch)" opacity="0.85"/>
<ellipse cx="48" cy="60" rx="8" ry="8.64" fill="#fff"/>
  <circle cx="48" cy="60.512" r="4.96" fill="#26203a"/>
  <circle cx="46.24" cy="58.432" r="1.92" fill="#fff"/>
<ellipse cx="72" cy="60" rx="8" ry="8.64" fill="#fff"/>
  <circle cx="72" cy="60.512" r="4.96" fill="#26203a"/>
  <circle cx="70.24" cy="58.432" r="1.92" fill="#fff"/>
<path d="M52 72 L60 80 L68 72 L60 70 Z" fill="#ffb13d" stroke="#d98a1c" stroke-width="1.8" stroke-linejoin="round"/>
<path d="M54 78 q6 5 12 0" stroke="#d98a1c" stroke-width="1.6" fill="none"/>
</svg>