<svg xmlns="http://www.w3.org/2000/svg" viewBox="0 0 120 124">
<defs>
  <radialGradient id="b" cx="40%" cy="32%" r="78%">
    <stop offset="0%" stop-color="#efe9f6"/>
    <stop offset="55%" stop-color="#cdc3df"/>
    <stop offset="100%" stop-color="#a99cc4"/>
  </radialGradient>
  <radialGradient id="ch" cx="50%" cy="50%" r="50%">
    <stop offset="0%" stop-color="#ff9ec4"/><stop offset="100%" stop-color="#ff9ec400"/>
  </radialGradient>
</defs>
<ellipse cx="60" cy="116" rx="34" ry="7" fill="#000000" opacity="0.16"/>
<circle cx="30" cy="36" r="20" fill="url(#b)" stroke="#8a7caf" stroke-width="2.4"/>
<circle cx="90" cy="36" r="20" fill="url(#b)" stroke="#8a7caf" stroke-width="2.4"/>
<circle cx="30" cy="36" r="11" fill="#ffb6d4"/>
<circle cx="90" cy="36" r="11" fill="#ffb6d4"/>
<path d="M98 92 q22 6 18 -18" stroke="#cdc3df" stroke-width="5" fill="none" stroke-linecap="round"/>
<path d="M98 92 q22 6 18 -18" stroke="#a99cc4" stroke-width="2" fill="none" stroke-linecap="round"/>
<circle cx="60" cy="66" r="40" fill="url(#b)" stroke="#8a7caf" stroke-width="2.6"/>
<circle cx="38" cy="70" r="9" fill="url(#ch)" opacity="0.85"/>
  <circle cx="82" cy="70" r="9" fill="url(#ch)" opacity="0.85"/>
<ellipse cx="48" cy="62" rx="7.5" ry="8.100000000000001" fill="#fff"/>
  <circle cx="48" cy="62.48" r="4.65" fill="#26203a"/>
  <circle cx="46.35" cy="60.529999999999994" r="1.7999999999999998" fill="#fff"/>
<ellipse cx="72" cy="62" rx="7.5" ry="8.100000000000001" fill="#fff"/>
  <circle cx="72" cy="62.48" r="4.65" fill="#26203a"/>
  <circle cx="70.35" cy="60.529999999999994" r="1.7999999999999998" fill="#fff"/>
<path d="M60 72 l-4 5 4 4 4-4 z" fill="#ff8fb0"/>
<path d="M60 81 q-6 5 -11 2 M60 81 q6 5 11 2" stroke="#8a7caf" stroke-width="2.2" fill="none" stroke-linecap="round"/>
<g stroke="#b3a7cf" stroke-width="1.5" stroke-linecap="round" opacity="0.85">
  <path d="M34 76 H14 M36 82 H17"/><path d="M86 76 H106 M84 82 H103"/>
</g>
</svg>