<svg xmlns="http://www.w3.org/2000/svg" viewBox="0 0 150 160" width="150" height="160">
  <defs>
    <linearGradient id="pb" x1="0" y1="0" x2="0" y2="1"><stop offset="0" stop-color="#3a4760"/><stop offset=".5" stop-color="#232c40"/><stop offset="1" stop-color="#141a28"/></linearGradient>
    <radialGradient id="pbel" cx=".5" cy=".35" r=".7"><stop offset="0" stop-color="#ffffff"/><stop offset="1" stop-color="#dfe7f0"/></radialGradient>
  </defs>
  <!-- feet -->
  <path d="M52 140 q-12 14 -2 16 q14 2 18 -10 Z" fill="#ffb13a" stroke="#c8791a" stroke-width="4" stroke-linejoin="round"/>
  <path d="M98 140 q12 14 2 16 q-14 2 -18 -10 Z" fill="#ffb13a" stroke="#c8791a" stroke-width="4" stroke-linejoin="round"/>
  <!-- body -->
  <path d="M75 16 Q126 20 124 92 Q122 146 75 148 Q28 146 26 92 Q24 20 75 16 Z" fill="url(#pb)" stroke="#0c1018" stroke-width="6" stroke-linejoin="round"/>
  <!-- belly -->
  <path d="M75 44 Q104 46 104 96 Q102 130 75 132 Q48 130 46 96 Q46 46 75 44 Z" fill="url(#pbel)"/>
  <!-- flippers -->
  <path d="M30 70 Q14 96 26 118 Q34 100 36 78 Z" fill="url(#pb)" stroke="#0c1018" stroke-width="5" stroke-linejoin="round"/>
  <path d="M120 70 Q136 96 124 118 Q116 100 114 78 Z" fill="url(#pb)" stroke="#0c1018" stroke-width="5" stroke-linejoin="round"/>
  <!-- eyes -->
  <circle cx="62" cy="58" r="11" fill="#fff" stroke="#0c1018" stroke-width="3"/><circle cx="64" cy="60" r="5" fill="#16263a"/>
  <circle cx="88" cy="58" r="11" fill="#fff" stroke="#0c1018" stroke-width="3"/><circle cx="86" cy="60" r="5" fill="#16263a"/>
  <!-- beak -->
  <path d="M68 70 L82 70 L75 84 Z" fill="#ffb13a" stroke="#c8791a" stroke-width="3.5" stroke-linejoin="round"/>
  <ellipse cx="62" cy="40" rx="22" ry="9" fill="#fff" opacity=".25"/>
</svg>
