<svg xmlns="http://www.w3.org/2000/svg" viewBox="0 0 120 100" width="120" height="100">
  <defs>
    <radialGradient id="cb" cx="0.4" cy="0.35" r="0.8">
      <stop offset="0" stop-color="#ff8a5c"/>
      <stop offset="0.55" stop-color="#f15a3b"/>
      <stop offset="1" stop-color="#c0341f"/>
    </radialGradient>
    <linearGradient id="cl" x1="0" y1="0" x2="0" y2="1">
      <stop offset="0" stop-color="#ff7a4f"/>
      <stop offset="1" stop-color="#cf3e26"/>
    </linearGradient>
  </defs>
  <!-- legs -->
  <g stroke="#b8331d" stroke-width="6" stroke-linecap="round" fill="none">
    <path d="M30 60 L10 70 M32 68 L14 82 M88 60 L110 70 M86 68 L106 82"/>
  </g>
  <!-- claws -->
  <g fill="url(#cl)" stroke="#a82d18" stroke-width="2">
    <path d="M22 50 q-16 -6 -18 -20 q10 -2 16 6 q4 -10 12 -6 q2 12 -4 18 z"/>
    <path d="M98 50 q16 -6 18 -20 q-10 -2 -16 6 q-4 -10 -12 -6 q-2 12 4 18 z"/>
  </g>
  <!-- shell body -->
  <ellipse cx="60" cy="58" rx="40" ry="30" fill="url(#cb)" stroke="#a82d18" stroke-width="2.5"/>
  <ellipse cx="48" cy="46" rx="16" ry="9" fill="#fff" opacity="0.22"/>
  <!-- eyes on stalks -->
  <g>
    <rect x="48" y="26" width="5" height="14" rx="2.5" fill="#cf3e26"/>
    <rect x="67" y="26" width="5" height="14" rx="2.5" fill="#cf3e26"/>
    <circle cx="50.5" cy="24" r="7" fill="#fff" stroke="#a82d18" stroke-width="1.5"/>
    <circle cx="69.5" cy="24" r="7" fill="#fff" stroke="#a82d18" stroke-width="1.5"/>
    <circle cx="51.5" cy="24" r="3.2" fill="#1a1a2a"/>
    <circle cx="70.5" cy="24" r="3.2" fill="#1a1a2a"/>
  </g>
  <path d="M50 70 q10 8 20 0" stroke="#8f2614" stroke-width="3" fill="none" stroke-linecap="round"/>
</svg>
