<svg xmlns="http://www.w3.org/2000/svg" viewBox="0 0 120 124">
<defs>
  <radialGradient id="b" cx="40%" cy="32%" r="78%">
    <stop offset="0%" stop-color="#ffd9c2"/>
    <stop offset="55%" stop-color="#ff9a76"/>
    <stop offset="100%" stop-color="#e06a47"/>
  </radialGradient>
  <radialGradient id="ch" cx="50%" cy="50%" r="50%">
    <stop offset="0%" stop-color="#ff9ec4"/><stop offset="100%" stop-color="#ff9ec400"/>
  </radialGradient>
</defs>
<ellipse cx="60" cy="116" rx="34" ry="7" fill="#000000" opacity="0.16"/>
<path d="M86 64 L112 44 Q108 64 112 84 Z" fill="#ff8a64" stroke="#c75636" stroke-width="2.4" stroke-linejoin="round"/>
<path d="M58 30 Q64 16 78 24 Q70 32 66 40 Z" fill="#ffae8c" stroke="#c75636" stroke-width="2.2"/>
<ellipse cx="54" cy="64" rx="44" ry="34" fill="url(#b)" stroke="#c75636" stroke-width="2.6"/>
<path d="M40 80 Q54 92 70 82" stroke="#e06a47" stroke-width="2.6" fill="none" opacity="0.55"/>
<circle cx="52" cy="68" r="9" fill="url(#ch)" opacity="0.8"/>
<ellipse cx="40" cy="58" rx="9" ry="9.72" fill="#fff"/>
  <circle cx="39.136" cy="58.288" r="5.58" fill="#26203a"/>
  <circle cx="37.156000000000006" cy="55.94799999999999" r="2.16" fill="#fff"/>
<path d="M24 66 q-6 4 0 9" stroke="#c75636" stroke-width="2.4" fill="none" stroke-linecap="round"/>
<path d="M14 64 q8 4 0 9 q-3 -4 0 -9" fill="#ff8a64" stroke="#c75636" stroke-width="1.8"/>
</svg>