<svg xmlns="http://www.w3.org/2000/svg" viewBox="0 0 140 140">
  <g fill="#0a0a16" stroke="#7fe0ff" stroke-width="2.6" stroke-linejoin="round"><circle cx="70" cy="70" r="26"/><path d="M91.8 66.9 Q85.4 70.0 124.0 70.0 Q85.4 70.0 91.8 73.1 Z"/><path d="M88.7 81.7 Q81.8 79.9 100.6 95.7 Q81.8 79.9 84.7 86.4 Z"/><path d="M76.8 90.9 Q72.7 85.2 80.1 127.1 Q72.7 85.2 70.8 92.0 Z"/><path d="M61.8 90.4 Q62.3 83.3 48.0 108.1 Q62.3 83.3 56.4 87.3 Z"/><path d="M50.6 80.3 Q55.5 75.3 23.0 87.1 Q55.5 75.3 48.5 74.6 Z"/><path d="M48.5 65.4 Q55.5 64.7 34.3 57.0 Q55.5 64.7 50.6 59.7 Z"/><path d="M56.4 52.7 Q62.3 56.7 42.0 21.5 Q62.3 56.7 61.8 49.6 Z"/><path d="M70.8 48.0 Q72.7 54.8 77.3 28.6 Q72.7 54.8 76.8 49.1 Z"/><path d="M84.7 53.6 Q81.8 60.1 109.8 36.6 Q81.8 60.1 88.7 58.3 Z"/><circle cx="112" cy="40" r="5"/><circle cx="28" cy="32" r="6"/><circle cx="118" cy="92" r="4"/><circle cx="38" cy="114" r="5"/><circle cx="100" cy="118" r="4"/><circle cx="16" cy="80" r="4"/></g>
  <ellipse cx="60" cy="60" rx="10" ry="6" fill="#39506e" opacity="0.55"/>
  </svg>