<svg xmlns="http://www.w3.org/2000/svg" viewBox="0 0 100 104">
<defs>
  <radialGradient id="pup_b" cx="0.42" cy="0.32" r="0.75"><stop offset="0" stop-color="#f2d49a"/><stop offset="0.6" stop-color="#e6c486"/><stop offset="1" stop-color="#cda85f"/></radialGradient>
  <radialGradient id="pup_sheen" cx="0.5" cy="0.5" r="0.5"><stop offset="0" stop-color="#fff" stop-opacity="0.55"/><stop offset="1" stop-color="#fff" stop-opacity="0"/></radialGradient>
</defs>
<g stroke="#5a3f20" stroke-width="4.5" stroke-linejoin="round">
  <ellipse cx="28" cy="22" rx="12" ry="14" fill="url(#pup_b)"/>
  <ellipse cx="72" cy="22" rx="12" ry="14" fill="url(#pup_b)"/>
  <ellipse cx="28" cy="22" rx="6" ry="8" fill="#f0d2a6" stroke="none"/>
  <ellipse cx="72" cy="22" rx="6" ry="8" fill="#f0d2a6" stroke="none"/>
  <ellipse cx="50" cy="60" rx="34" ry="34" fill="url(#pup_b)"/>
  <ellipse cx="50" cy="70" rx="22" ry="22" fill="#f6ebcf" stroke="none"/>
  <ellipse cx="34" cy="96" rx="9" ry="6" fill="#d9b070"/>
  <ellipse cx="66" cy="96" rx="9" ry="6" fill="#d9b070"/>
</g>
<ellipse cx="40" cy="44" rx="16" ry="13" fill="url(#pup_sheen)"/>
<circle cx="38" cy="54" r="6.5" fill="#3a2414"/><circle cx="62" cy="54" r="6.5" fill="#3a2414"/>
<circle cx="40" cy="52" r="2.2" fill="#fff"/><circle cx="64" cy="52" r="2.2" fill="#fff"/>
<ellipse cx="50" cy="66" rx="4.5" ry="3.4" fill="#c66a6a" stroke="#5a3f20" stroke-width="2.4"/>
<g fill="#fff" stroke="#5a3f20" stroke-width="2.2"><rect x="45" y="72" width="5" height="8" rx="1.5"/><rect x="50" y="72" width="5" height="8" rx="1.5"/></g>
</svg>