<svg class="boss-art" preserveAspectRatio="xMidYMid meet" style="width:100%;height:100%;display:block" xmlns="http://www.w3.org/2000/svg" viewBox="0 0 760 640" width="760" height="640">
  <defs>
    <linearGradient id="anpan_body" x1="0" y1="0" x2="0" y2="1"><stop offset="0" stop-color="#f0c27a"/><stop offset="1" stop-color="#d29346"/></linearGradient>
    <linearGradient id="anpan_crust" x1="0" y1="0" x2="0" y2="1"><stop offset="0" stop-color="#b9772f"/><stop offset="1" stop-color="#9c5d20"/></linearGradient>
  </defs>
  <g class="anpan_cape"><path d="M250 300 L150 560 L330 470 Z" fill="#d23a3a"/><path d="M510 300 L610 560 L430 470 Z" fill="#b62f2f"/></g>
  <g class="anpan_body">
    <ellipse cx="380" cy="360" rx="210" ry="190" fill="url(#anpan_body)" stroke="#8a5320" stroke-width="6"/>
    <path d="M170 300 q210 -120 420 0 q-40 -70 -210 -70 q-170 0 -210 70 Z" fill="url(#anpan_crust)"/>
    <ellipse cx="380" cy="430" rx="150" ry="120" fill="#f7d79c" opacity="0.55"/>
  </g>
  <g class="anpan_face">
    <path d="M250 320 h110 a18 18 0 0 1 0 36 h-110 a18 18 0 0 1 0 -36 Z M400 320 h110 a18 18 0 0 1 0 36 h-110 a18 18 0 0 1 0 -36 Z" fill="#d23a3a"/>
    <circle cx="305" cy="338" r="20" fill="#fff"/><circle cx="455" cy="338" r="20" fill="#fff"/>
    <circle cx="308" cy="340" r="10" fill="#2a1a0a"/><circle cx="452" cy="340" r="10" fill="#2a1a0a"/>
    <circle cx="262" cy="400" r="26" fill="#f06a6a" opacity="0.7"/><circle cx="498" cy="400" r="26" fill="#f06a6a" opacity="0.7"/>
    <path d="M320 420 q60 50 120 0" fill="none" stroke="#7a3a14" stroke-width="9" stroke-linecap="round"/>
  </g>
  <g class="anpan_fist"><circle cx="600" cy="470" r="58" fill="url(#anpan_body)" stroke="#8a5320" stroke-width="6"/><path d="M560 470 h80 M560 452 h80 M560 488 h80" stroke="#8a5320" stroke-width="5" stroke-linecap="round"/></g>
</svg>