<svg class="boss-art" preserveAspectRatio="xMidYMid meet" style="width:100%;height:100%;display:block" xmlns="http://www.w3.org/2000/svg" viewBox="0 0 760 640" width="760" height="640">
  <defs>
    <!-- ===== Deep space backdrop ===== -->
    <radialGradient id="brainrot_spaceBg" cx="0.5" cy="0.42" r="0.85">
      <stop offset="0"    stop-color="#2a0e52"/>
      <stop offset="0.45" stop-color="#160730"/>
      <stop offset="1"    stop-color="#05010f"/>
    </radialGradient>

    <!-- ===== Accretion disk ===== -->
    <radialGradient id="brainrot_diskGlow" cx="0.5" cy="0.5" r="0.5">
      <stop offset="0"    stop-color="#fff7d6"/>
      <stop offset="0.35" stop-color="#ffe45c"/>
      <stop offset="0.62" stop-color="#ff8844"/>
      <stop offset="0.85" stop-color="#ff3366"/>
      <stop offset="1"    stop-color="#ff3366" stop-opacity="0"/>
    </radialGradient>
    <linearGradient id="brainrot_diskRing" x1="0" y1="0" x2="1" y2="0">
      <stop offset="0"    stop-color="#ff3366"/>
      <stop offset="0.25" stop-color="#ffa030"/>
      <stop offset="0.5"  stop-color="#fff2a0"/>
      <stop offset="0.75" stop-color="#ffa030"/>
      <stop offset="1"    stop-color="#ff3366"/>
    </linearGradient>
    <radialGradient id="brainrot_eventHorizon" cx="0.5" cy="0.5" r="0.5">
      <stop offset="0"    stop-color="#000000"/>
      <stop offset="0.7"  stop-color="#05000a"/>
      <stop offset="0.92" stop-color="#1a0030"/>
      <stop offset="1"    stop-color="#ffcf6a"/>
    </radialGradient>

    <!-- ===== Lion body / face ===== -->
    <radialGradient id="brainrot_lionBody" cx="0.5" cy="0.32" r="0.85">
      <stop offset="0"    stop-color="#7a3ec0"/>
      <stop offset="0.55" stop-color="#4a1f86"/>
      <stop offset="1"    stop-color="#1c0a3e"/>
    </radialGradient>
    <radialGradient id="brainrot_lionFace" cx="0.5" cy="0.38" r="0.72">
      <stop offset="0"    stop-color="#c98bf0"/>
      <stop offset="0.5"  stop-color="#a060d8"/>
      <stop offset="0.85" stop-color="#6a2caa"/>
      <stop offset="1"    stop-color="#42186e"/>
    </radialGradient>
    <radialGradient id="brainrot_snout" cx="0.5" cy="0.35" r="0.8">
      <stop offset="0"   stop-color="#d9a8f5"/>
      <stop offset="0.6" stop-color="#a868d8"/>
      <stop offset="1"   stop-color="#6a2caa"/>
    </radialGradient>
    <linearGradient id="brainrot_muzzleShade" x1="0" y1="0" x2="0" y2="1">
      <stop offset="0" stop-color="#1a0030" stop-opacity="0.55"/>
      <stop offset="1" stop-color="#1a0030" stop-opacity="0"/>
    </linearGradient>

    <!-- ===== Mane nebula gradients ===== -->
    <radialGradient id="brainrot_nebulaA" cx="0.5" cy="0.5" r="0.5">
      <stop offset="0"   stop-color="#ff7ad6"/>
      <stop offset="0.5" stop-color="#9b3df0"/>
      <stop offset="1"   stop-color="#2a0a5a" stop-opacity="0"/>
    </radialGradient>
    <radialGradient id="brainrot_nebulaB" cx="0.5" cy="0.5" r="0.5">
      <stop offset="0"   stop-color="#7ad6ff"/>
      <stop offset="0.5" stop-color="#3a6cf0"/>
      <stop offset="1"   stop-color="#0a1a5a" stop-opacity="0"/>
    </radialGradient>
    <radialGradient id="brainrot_nebulaC" cx="0.5" cy="0.5" r="0.5">
      <stop offset="0"   stop-color="#ffd86a"/>
      <stop offset="0.5" stop-color="#ff7a3a"/>
      <stop offset="1"   stop-color="#5a1a0a" stop-opacity="0"/>
    </radialGradient>
    <radialGradient id="brainrot_maneCore" cx="0.5" cy="0.5" r="0.62">
      <stop offset="0"    stop-color="#3a1a6a"/>
      <stop offset="0.7"  stop-color="#26104e"/>
      <stop offset="1"    stop-color="#160730"/>
    </radialGradient>

    <!-- ===== Eyes ===== -->
    <radialGradient id="brainrot_eyeGlow" cx="0.5" cy="0.5" r="0.5">
      <stop offset="0"   stop-color="#ffffff"/>
      <stop offset="0.4" stop-color="#bff0ff"/>
      <stop offset="0.8" stop-color="#55c4ff"/>
      <stop offset="1"   stop-color="#1b6fd6"/>
    </radialGradient>

    <!-- ===== filters ===== -->
    <filter id="brainrot_softGlow" x="-60%" y="-60%" width="220%" height="220%">
      <feGaussianBlur stdDeviation="6" result="b"/>
      <feMerge><feMergeNode in="b"/><feMergeNode in="SourceGraphic"/></feMerge>
    </filter>
    <filter id="brainrot_bigGlow" x="-80%" y="-80%" width="260%" height="260%">
      <feGaussianBlur stdDeviation="14"/>
    </filter>
    <filter id="brainrot_blurMane" x="-40%" y="-40%" width="180%" height="180%">
      <feGaussianBlur stdDeviation="9"/>
    </filter>
  </defs>

  <!-- ============ BACKGROUND ============ -->
  

  <!-- scattered far stars -->
  <g fill="#ffffff">
    <circle cx="60"  cy="70"  r="1.6" opacity="0.9"/>
    <circle cx="120" cy="130" r="1.0" opacity="0.6"/>
    <circle cx="200" cy="60"  r="1.2" opacity="0.7"/>
    <circle cx="690" cy="80"  r="1.7" opacity="0.9"/>
    <circle cx="730" cy="150" r="1.1" opacity="0.6"/>
    <circle cx="600" cy="50"  r="1.0" opacity="0.6"/>
    <circle cx="40"  cy="300" r="1.4" opacity="0.8"/>
    <circle cx="90"  cy="420" r="1.0" opacity="0.6"/>
    <circle cx="720" cy="320" r="1.5" opacity="0.85"/>
    <circle cx="700" cy="470" r="1.0" opacity="0.6"/>
    <circle cx="360" cy="40"  r="1.1" opacity="0.6"/>
    <circle cx="470" cy="55"  r="0.9" opacity="0.5"/>
    <circle cx="30"  cy="180" r="0.9" opacity="0.5"/>
    <circle cx="745" cy="240" r="0.9" opacity="0.5"/>
    <circle cx="150" cy="560" r="1.1" opacity="0.6"/>
    <circle cx="610" cy="560" r="1.1" opacity="0.6"/>
  </g>

  <!-- gravity-spiral motion lines toward the core -->
  <g stroke="#9b6cff" stroke-width="1.2" fill="none" opacity="0.28">
    <path d="M 90 120  Q 240 260 380 420"/>
    <path d="M 680 110 Q 520 260 380 420"/>
    <path d="M 60 440  Q 220 440 380 430"/>
    <path d="M 710 450 Q 540 440 380 430"/>
    <path d="M 380 30  Q 380 200 380 410"/>
  </g>

  <!-- ============ MANE :: drawn behind head ============ -->
  <!-- shared central backdrop: the dark nebula core halo behind the head.
       Not part of either destructible half so the head never loses its base. -->
  <g filter="url(#brainrot_blurMane)" opacity="0.85">
    <circle cx="380" cy="215" r="210" fill="url(#brainrot_maneCore)"/>
    <circle cx="380" cy="60"  r="95"  fill="url(#brainrot_nebulaC)" opacity="0.6"/>
  </g>

  <!--
    The mane is a radiating wreath of pointed nebula tufts around the head.
    Each tuft = a dark base spike + a glowing nebula bloom + a star.
    Split into two destructible halves (maneL / maneR), each holding all and
    only its side's halo glow, swaths, spiral arms, tuft spikes, blooms and
    stars. The central crown tufts are split down the middle between them.
  -->

  <!-- ===== mane group: left half ===== -->
  <g id="brainrot_P-maneL">
    <!-- diffuse nebula underglow (left side) -->
    <g filter="url(#brainrot_blurMane)" opacity="0.85">
      <circle cx="225" cy="150" r="95"  fill="url(#brainrot_nebulaA)" opacity="0.7"/>
      <circle cx="195" cy="290" r="85"  fill="url(#brainrot_nebulaB)" opacity="0.6"/>
    </g>
    <!-- broad swirling nebula swaths (left side) -->
    <g filter="url(#brainrot_blurMane)" opacity="0.6">
      <path d="M 380 200 Q 220 120 175 215 Q 150 300 235 330 Q 270 270 300 210 Q 330 195 380 200 Z" fill="url(#brainrot_nebulaA)"/>
      <path d="M 210 280 Q 200 360 290 380 Q 300 320 320 285 Q 270 285 210 280 Z" fill="url(#brainrot_nebulaC)"/>
    </g>
    <!-- swirling galaxy spiral arms (left side) -->
    <g fill="none" stroke-linecap="round">
      <path d="M 380 215 Q 230 130 180 230 Q 150 320 250 340" stroke="#c77aff" stroke-width="6" opacity="0.55"/>
      <path d="M 380 215 Q 360 70 270 55 Q 190 50 200 150" stroke="#ffb36a" stroke-width="5" opacity="0.5"/>
    </g>
    <!-- pointed tuft spikes radiating out (dark cosmic base) -->
    <g fill="url(#brainrot_maneCore)" stroke="#6a2caa" stroke-width="2">
      <path d="M 360 150 L 300 40  L 330 145 Z"/>
      <path d="M 330 165 L 230 60  L 305 160 Z"/>
      <path d="M 312 190 L 175 120 L 295 185 Z"/>
      <path d="M 300 218 L 150 215 L 295 215 Z"/>
      <path d="M 305 248 L 165 305 L 300 240 Z"/>
      <path d="M 318 285 L 205 380 L 312 270 Z"/>
      <path d="M 342 318 L 270 425 L 335 300 Z"/>
    </g>
    <!-- nebula blooms sitting on the tufts -->
    <g>
      <ellipse cx="300" cy="92"  rx="50" ry="40" fill="url(#brainrot_nebulaC)" opacity="0.85" transform="rotate(-30 300 92)"/>
      <ellipse cx="240" cy="115" rx="52" ry="42" fill="url(#brainrot_nebulaA)" opacity="0.85" transform="rotate(-20 240 115)"/>
      <ellipse cx="195" cy="180" rx="50" ry="42" fill="url(#brainrot_nebulaB)" opacity="0.85" transform="rotate(10 195 180)"/>
      <ellipse cx="180" cy="245" rx="48" ry="42" fill="url(#brainrot_nebulaA)" opacity="0.8" transform="rotate(30 180 245)"/>
      <ellipse cx="215" cy="320" rx="50" ry="42" fill="url(#brainrot_nebulaC)" opacity="0.8" transform="rotate(20 215 320)"/>
      <ellipse cx="280" cy="375" rx="46" ry="40" fill="url(#brainrot_nebulaB)" opacity="0.75" transform="rotate(-10 280 375)"/>
    </g>
    <!-- star sparkles + bloom cores in left mane -->
    <g fill="#ffffff">
      <circle cx="300" cy="86"  r="2.6" opacity="0.95"/>
      <circle cx="238" cy="112" r="2.2" opacity="0.9"/>
      <circle cx="193" cy="178" r="2.4" opacity="0.95"/>
      <circle cx="178" cy="244" r="2.0" opacity="0.85"/>
      <circle cx="214" cy="318" r="2.4" opacity="0.9"/>
      <circle cx="280" cy="372" r="2.0" opacity="0.85"/>
      <circle cx="255" cy="160" r="1.4" opacity="0.7"/>
      <circle cx="225" cy="280" r="1.4" opacity="0.7"/>
    </g>
  </g>

  <!-- ===== mane group: right half ===== -->
  <g id="brainrot_P-maneR">
    <!-- diffuse nebula underglow (right side) -->
    <g filter="url(#brainrot_blurMane)" opacity="0.85">
      <circle cx="540" cy="150" r="95"  fill="url(#brainrot_nebulaB)" opacity="0.7"/>
      <circle cx="565" cy="290" r="85"  fill="url(#brainrot_nebulaA)" opacity="0.6"/>
    </g>
    <!-- broad swirling nebula swaths (right side) -->
    <g filter="url(#brainrot_blurMane)" opacity="0.6">
      <path d="M 380 200 Q 540 120 585 215 Q 610 300 525 330 Q 490 270 460 210 Q 430 195 380 200 Z" fill="url(#brainrot_nebulaB)"/>
      <path d="M 550 280 Q 560 360 470 380 Q 460 320 440 285 Q 490 285 550 280 Z" fill="url(#brainrot_nebulaA)"/>
    </g>
    <!-- swirling galaxy spiral arms (right side) -->
    <g fill="none" stroke-linecap="round">
      <path d="M 380 215 Q 530 130 580 230 Q 610 320 510 340" stroke="#7ab4ff" stroke-width="6" opacity="0.55"/>
      <path d="M 380 215 Q 400 70 490 55 Q 570 50 560 150" stroke="#ff8ad6" stroke-width="5" opacity="0.5"/>
    </g>
    <!-- pointed tuft spikes radiating out (dark cosmic base) -->
    <g fill="url(#brainrot_maneCore)" stroke="#6a2caa" stroke-width="2">
      <path d="M 400 150 L 460 40  L 430 145 Z"/>
      <path d="M 430 165 L 530 60  L 455 160 Z"/>
      <path d="M 448 190 L 585 120 L 465 185 Z"/>
      <path d="M 460 218 L 610 215 L 465 215 Z"/>
      <path d="M 455 248 L 595 305 L 460 240 Z"/>
      <path d="M 442 285 L 555 380 L 448 270 Z"/>
      <path d="M 418 318 L 490 425 L 425 300 Z"/>
    </g>
    <!-- nebula blooms sitting on the tufts -->
    <g>
      <ellipse cx="460" cy="92"  rx="50" ry="40" fill="url(#brainrot_nebulaB)" opacity="0.85" transform="rotate(30 460 92)"/>
      <ellipse cx="520" cy="115" rx="52" ry="42" fill="url(#brainrot_nebulaC)" opacity="0.85" transform="rotate(20 520 115)"/>
      <ellipse cx="565" cy="180" rx="50" ry="42" fill="url(#brainrot_nebulaA)" opacity="0.85" transform="rotate(-10 565 180)"/>
      <ellipse cx="580" cy="245" rx="48" ry="42" fill="url(#brainrot_nebulaB)" opacity="0.8" transform="rotate(-30 580 245)"/>
      <ellipse cx="545" cy="320" rx="50" ry="42" fill="url(#brainrot_nebulaA)" opacity="0.8" transform="rotate(-20 545 320)"/>
      <ellipse cx="480" cy="375" rx="46" ry="40" fill="url(#brainrot_nebulaC)" opacity="0.75" transform="rotate(10 480 375)"/>
    </g>
    <!-- star sparkles + bloom cores in right mane -->
    <g fill="#ffffff">
      <circle cx="460" cy="86"  r="2.6" opacity="0.95"/>
      <circle cx="522" cy="112" r="2.2" opacity="0.9"/>
      <circle cx="567" cy="178" r="2.4" opacity="0.95"/>
      <circle cx="582" cy="244" r="2.0" opacity="0.85"/>
      <circle cx="546" cy="318" r="2.4" opacity="0.9"/>
      <circle cx="480" cy="372" r="2.0" opacity="0.85"/>
      <circle cx="505" cy="160" r="1.4" opacity="0.7"/>
      <circle cx="535" cy="280" r="1.4" opacity="0.7"/>
    </g>
  </g>

  <!-- shared central crown tuft cap, sitting over the seam of both halves -->
  <g>
    <path d="M 300 175 Q 360 70 460 75 Q 420 150 400 185 Q 350 180 300 175 Z" fill="url(#brainrot_nebulaC)" opacity="0.6" filter="url(#brainrot_blurMane)"/>
    <ellipse cx="380" cy="58"  rx="62" ry="46" fill="url(#brainrot_nebulaA)" opacity="0.85"/>
    <ellipse cx="340" cy="78"  rx="38" ry="30" fill="url(#brainrot_nebulaC)" opacity="0.65"/>
    <ellipse cx="420" cy="78"  rx="38" ry="30" fill="url(#brainrot_nebulaB)" opacity="0.65"/>
    <g fill="#ffffff">
      <circle cx="380" cy="50"  r="2.8" opacity="0.95"/>
      <circle cx="343" cy="76"  r="1.9" opacity="0.85"/>
      <circle cx="417" cy="76"  r="1.9" opacity="0.85"/>
      <circle cx="380" cy="92"  r="1.5" opacity="0.7"/>
    </g>
  </g>

  <!-- ============ BLACK HOLE + ACCRETION DISK (chest weak-spot) ============ -->
  <!-- The lion rises OUT of a swirling black hole; lower body dissolves into it. -->
  <g id="brainrot_part-core">
    <!-- broad disk under-glow halo -->
    <ellipse cx="380" cy="500" rx="250" ry="92" fill="url(#brainrot_diskGlow)" opacity="0.45" filter="url(#brainrot_bigGlow)"/>
    <!-- back arc of accretion disk (gravitationally lensed up & over the hole) -->
    <path d="M 198 500 Q 380 360 562 500"
          fill="none" stroke="url(#brainrot_diskRing)" stroke-width="26" stroke-linecap="round" opacity="0.92" filter="url(#brainrot_softGlow)"/>
    <!-- broad disk glow body -->
    <ellipse cx="380" cy="505" rx="220" ry="74" fill="url(#brainrot_diskGlow)" opacity="0.95" filter="url(#brainrot_softGlow)"/>
    <ellipse cx="380" cy="505" rx="195" ry="62" fill="url(#brainrot_diskGlow)" opacity="0.6"/>
    <!-- the event horizon (the dark weak-point the player aims for) -->
    <ellipse cx="380" cy="505" rx="86" ry="62" fill="url(#brainrot_eventHorizon)"/>
    <ellipse cx="380" cy="505" rx="80" ry="56" fill="#000000"/>
    <!-- thin photon ring -->
    <ellipse cx="380" cy="505" rx="83" ry="59" fill="none" stroke="#fff2a0" stroke-width="2.6" opacity="0.9"/>
    <!-- inner highlight rim on the horizon (lensed light) -->
    <path d="M 305 478 Q 380 452 455 478" fill="none" stroke="#fff7d6" stroke-width="3" opacity="0.8" stroke-linecap="round"/>
    <!-- front arc of disk crossing in front, lower -->
    <path d="M 210 535 Q 380 638 550 535"
          fill="none" stroke="url(#brainrot_diskRing)" stroke-width="20" stroke-linecap="round" opacity="0.95" filter="url(#brainrot_softGlow)"/>
    <!-- swirling streaks spiraling into the hole -->
    <g stroke="#ffd86a" stroke-width="2.4" fill="none" opacity="0.7" stroke-linecap="round">
      <path d="M 210 488 Q 300 478 350 505"/>
      <path d="M 550 488 Q 460 478 410 505"/>
      <path d="M 250 552 Q 330 540 366 522"/>
      <path d="M 510 552 Q 430 540 394 522"/>
    </g>
  </g>

  <!-- ============ LION BODY / TORSO ============ -->
  <g id="brainrot_part-body">
    <!-- ambient occlusion behind torso -->
    <ellipse cx="380" cy="370" rx="158" ry="96" fill="#0a0418" opacity="0.5"/>
    <!-- broad regal chest, narrowing as it descends into the black hole -->
    <path d="M 246 318
             Q 240 248 380 244
             Q 520 248 514 318
             Q 510 400 470 448
             Q 430 486 380 486
             Q 330 486 290 448
             Q 250 400 246 318 Z"
          fill="url(#brainrot_lionBody)" stroke="#170836" stroke-width="3"/>
    <!-- core form shadow on left + bottom (ambient occlusion) -->
    <path d="M 246 318 Q 250 400 290 448 Q 330 486 380 486 Q 320 470 296 410 Q 270 360 270 300 Z"
          fill="#150730" opacity="0.45"/>
    <!-- chest mane-fur fluff strokes -->
    <g stroke="#9b5ce0" stroke-width="2.2" fill="none" opacity="0.45" stroke-linecap="round">
      <path d="M 320 300 Q 330 330 322 366"/>
      <path d="M 352 292 Q 360 330 352 372"/>
      <path d="M 384 290 Q 392 330 384 374"/>
      <path d="M 416 292 Q 424 330 416 372"/>
      <path d="M 448 300 Q 458 330 450 366"/>
    </g>
    <!-- chest ruff scallop (leonine fur collar where neck meets torso) -->
    <g fill="url(#brainrot_lionFace)" stroke="#42186e" stroke-width="1.5" opacity="0.95">
      <path d="M 318 262 Q 332 290 346 264 Z"/>
      <path d="M 346 264 Q 363 296 380 266 Z"/>
      <path d="M 380 266 Q 397 296 414 264 Z"/>
      <path d="M 414 264 Q 428 290 442 262 Z"/>
    </g>
    <!-- belly + top rim light -->
    <path d="M 262 300 Q 380 248 498 300" fill="none" stroke="#e8c8ff" stroke-width="3.5" opacity="0.45" stroke-linecap="round"/>
    <path d="M 290 430 Q 380 470 470 430" fill="none" stroke="#c77aff" stroke-width="2.5" opacity="0.3" stroke-linecap="round"/>
    <!-- front legs/paws reaching down, gripping the disk rim as he rises out -->
    <g id="brainrot_P-legF">
      <path d="M 286 388 Q 268 432 280 470 Q 290 494 316 490 Q 330 444 324 396 Z"
            fill="url(#brainrot_lionBody)" stroke="#170836" stroke-width="2.5"/>
      <path d="M 286 388 Q 268 432 280 470 Q 290 494 300 490 Q 288 444 296 396 Z"
            fill="#150730" opacity="0.4"/>
      <ellipse cx="300" cy="486" rx="26" ry="15" fill="#2a1050" stroke="#160730" stroke-width="2"/>
      <g stroke="#160730" stroke-width="2" opacity="0.7">
        <line x1="288" y1="484" x2="286" y2="496"/>
        <line x1="300" y1="486" x2="300" y2="498"/>
        <line x1="312" y1="484" x2="314" y2="496"/>
      </g>
      <g fill="#bff0ff" opacity="0.9">
        <path d="M 285 495 l -3 9 l 4 -2 Z"/>
        <path d="M 300 498 l 0 10 l 4 -3 Z"/>
        <path d="M 314 495 l 3 9 l -4 -2 Z"/>
      </g>
    </g>
    <g id="brainrot_P-legB">
      <path d="M 474 388 Q 492 432 480 470 Q 470 494 444 490 Q 430 444 436 396 Z"
            fill="url(#brainrot_lionBody)" stroke="#170836" stroke-width="2.5"/>
      <path d="M 474 388 Q 492 432 480 470 Q 470 494 460 490 Q 472 444 464 396 Z"
            fill="#150730" opacity="0.4"/>
      <ellipse cx="460" cy="486" rx="26" ry="15" fill="#2a1050" stroke="#160730" stroke-width="2"/>
      <g stroke="#160730" stroke-width="2" opacity="0.7">
        <line x1="448" y1="484" x2="446" y2="496"/>
        <line x1="460" y1="486" x2="460" y2="498"/>
        <line x1="472" y1="484" x2="474" y2="496"/>
      </g>
      <g fill="#bff0ff" opacity="0.9">
        <path d="M 445 495 l -3 9 l 4 -2 Z"/>
        <path d="M 460 498 l 0 10 l 4 -3 Z"/>
        <path d="M 474 495 l 3 9 l -4 -2 Z"/>
      </g>
    </g>
  </g>

  <!-- ===== front rim of the black hole, overlapping the lower body (emerging look) ===== -->
  <g id="brainrot_part-core-front">
    <path d="M 232 512 Q 380 612 528 512"
          fill="none" stroke="url(#brainrot_diskRing)" stroke-width="22" stroke-linecap="round" opacity="0.95" filter="url(#brainrot_softGlow)"/>
    <!-- the dark event horizon peeking out below the body between the paws (the weak-spot) -->
    <path d="M 320 484 Q 380 470 440 484 Q 452 520 420 552 Q 380 574 340 552 Q 308 520 320 484 Z"
          fill="url(#brainrot_eventHorizon)"/>
    <path d="M 326 488 Q 380 476 434 488 Q 444 518 416 546 Q 380 566 344 546 Q 316 518 326 488 Z"
          fill="#000000"/>
    <!-- bright photon ring around the visible horizon -->
    <path d="M 322 486 Q 380 472 438 486 Q 449 519 418 549 Q 380 570 342 549 Q 311 519 322 486 Z"
          fill="none" stroke="#fff2a0" stroke-width="2.6" opacity="0.95" filter="url(#brainrot_softGlow)"/>
    <!-- lensed highlight on top edge of the horizon -->
    <path d="M 332 488 Q 380 478 428 488" fill="none" stroke="#fff7d6" stroke-width="3" opacity="0.85" stroke-linecap="round"/>
    <!-- glowing front horizon edge wrapping the dissolving lower body -->
    <path d="M 300 498 Q 380 530 460 498" fill="none" stroke="#ffb347" stroke-width="6" opacity="0.6" stroke-linecap="round" filter="url(#brainrot_softGlow)"/>
    <g stroke="#ffd86a" stroke-width="2.4" fill="none" opacity="0.6" stroke-linecap="round">
      <path d="M 250 540 Q 320 532 360 540"/>
      <path d="M 510 540 Q 440 532 400 540"/>
    </g>
  </g>

  <!-- ============ COMET TAIL ============ -->
  <g id="brainrot_P-tail">
    <path d="M 500 360 Q 600 340 670 280 Q 720 235 735 195"
          stroke="#aa66ff" stroke-width="10" fill="none" stroke-linecap="round" opacity="0.6" filter="url(#brainrot_softGlow)"/>
    <path d="M 500 360 Q 600 340 670 280 Q 720 235 735 195"
          stroke="#ffffff" stroke-width="3" fill="none" stroke-linecap="round" opacity="0.7"/>
    <g fill="#ffffff">
      <circle cx="605" cy="335" r="3"   opacity="0.9"/>
      <circle cx="668" cy="282" r="2.2" opacity="0.8"/>
      <circle cx="718" cy="232" r="2.6" opacity="0.85"/>
      <circle cx="640" cy="305" r="1.6" opacity="0.7"/>
    </g>
    <!-- star burst at tail tip -->
    <g transform="translate(735 195)" fill="#fff2a0">
      <path d="M 0 -14 L 3 -3 L 14 0 L 3 3 L 0 14 L -3 3 L -14 0 L -3 -3 Z"/>
    </g>
  </g>

  <!-- ============ LION HEAD ============ -->
  <g id="brainrot_part-head">
    <!-- head AO / drop -->
    <ellipse cx="380" cy="228" rx="98" ry="84" fill="#0a0418" opacity="0.5"/>
    <!-- small rounded lion ears set wide on the upper sides -->
    <ellipse cx="306" cy="172" rx="22" ry="20" fill="url(#brainrot_lionFace)" stroke="#42186e" stroke-width="2.5"/>
    <ellipse cx="454" cy="172" rx="22" ry="20" fill="url(#brainrot_lionFace)" stroke="#42186e" stroke-width="2.5"/>
    <ellipse cx="308" cy="176" rx="11" ry="10" fill="#ff9ae0" opacity="0.55"/>
    <ellipse cx="452" cy="176" rx="11" ry="10" fill="#ff9ae0" opacity="0.55"/>

    <!-- face: wide leonine muzzle, broad cheeks -->
    <path d="M 296 196
             Q 296 150 380 150
             Q 464 150 464 196
             Q 464 250 430 282
             Q 405 308 380 308
             Q 355 308 330 282
             Q 296 250 296 196 Z"
          fill="url(#brainrot_lionFace)" stroke="#42186e" stroke-width="3"/>
    <!-- cheek ruffs (leonine fur jut) -->
    <path d="M 300 240 Q 282 262 296 286 Q 312 270 312 250 Z" fill="url(#brainrot_lionFace)" stroke="#42186e" stroke-width="2"/>
    <path d="M 460 240 Q 478 262 464 286 Q 448 270 448 250 Z" fill="url(#brainrot_lionFace)" stroke="#42186e" stroke-width="2"/>
    <!-- fur strokes around face edge -->
    <g stroke="#42186e" stroke-width="2.5" opacity="0.5" stroke-linecap="round">
      <path d="M 300 200 l -16 -8"/>
      <path d="M 296 230 l -18 0"/>
      <path d="M 302 262 l -16 10"/>
      <path d="M 460 200 l 16 -8"/>
      <path d="M 464 230 l 18 0"/>
      <path d="M 458 262 l 16 10"/>
      <path d="M 340 296 l -8 16"/>
      <path d="M 420 296 l 8 16"/>
    </g>
    <!-- face top rim light -->
    <path d="M 318 168 Q 380 138 442 168" fill="none" stroke="#e8c8ff" stroke-width="3.5" opacity="0.55" stroke-linecap="round"/>

    <!-- ===== BROWS (commanding, theatrical anger) ===== -->
    <path d="M 318 178 Q 350 160 372 182" fill="none" stroke="#2a0a50" stroke-width="7" stroke-linecap="round"/>
    <path d="M 442 178 Q 410 160 388 182" fill="none" stroke="#2a0a50" stroke-width="7" stroke-linecap="round"/>
    <!-- glowing brow accent -->
    <path d="M 322 176 Q 350 162 370 180" fill="none" stroke="#c77aff" stroke-width="2" stroke-linecap="round" opacity="0.7"/>
    <path d="M 438 176 Q 410 162 390 180" fill="none" stroke="#c77aff" stroke-width="2" stroke-linecap="round" opacity="0.7"/>

    <!-- ===== EYES ===== -->
    <g id="brainrot_P-eL">
      <ellipse cx="345" cy="206" rx="20" ry="22" fill="#180630"/>
      <circle cx="345" cy="206" r="17" fill="url(#brainrot_eyeGlow)" filter="url(#brainrot_softGlow)"/>
      <ellipse cx="345" cy="208" rx="8" ry="11" fill="#06122e"/>
      <circle cx="340" cy="200" r="4.5" fill="#ffffff"/>
      <circle cx="349" cy="212" r="2" fill="#ffffff" opacity="0.8"/>
      <!-- glowing iris streaks -->
      <g stroke="#bff0ff" stroke-width="1" opacity="0.6">
        <line x1="345" y1="192" x2="345" y2="198"/>
        <line x1="331" y1="206" x2="337" y2="206"/>
      </g>
    </g>
    <g id="brainrot_P-eR">
      <ellipse cx="415" cy="206" rx="20" ry="22" fill="#180630"/>
      <circle cx="415" cy="206" r="17" fill="url(#brainrot_eyeGlow)" filter="url(#brainrot_softGlow)"/>
      <ellipse cx="415" cy="208" rx="8" ry="11" fill="#06122e"/>
      <circle cx="410" cy="200" r="4.5" fill="#ffffff"/>
      <circle cx="419" cy="212" r="2" fill="#ffffff" opacity="0.8"/>
      <g stroke="#bff0ff" stroke-width="1" opacity="0.6">
        <line x1="415" y1="192" x2="415" y2="198"/>
        <line x1="423" y1="206" x2="429" y2="206"/>
      </g>
    </g>

    <!-- ===== SNOUT / MUZZLE ===== -->
    <ellipse cx="380" cy="258" rx="46" ry="34" fill="url(#brainrot_snout)" stroke="#5a2090" stroke-width="2"/>
    <path d="M 334 258 Q 380 300 426 258 Q 410 286 380 290 Q 350 286 334 258 Z" fill="url(#brainrot_muzzleShade)"/>
    <!-- muzzle whisker dots -->
    <g fill="#5a2090" opacity="0.55">
      <circle cx="352" cy="252" r="1.3"/>
      <circle cx="346" cy="260" r="1.3"/>
      <circle cx="354" cy="266" r="1.3"/>
      <circle cx="408" cy="252" r="1.3"/>
      <circle cx="414" cy="260" r="1.3"/>
      <circle cx="406" cy="266" r="1.3"/>
    </g>
    <!-- nose -->
    <path d="M 365 244 Q 380 238 395 244 Q 392 256 380 260 Q 368 256 365 244 Z"
          fill="#2a0a44" stroke="#150522" stroke-width="1.5"/>
    <ellipse cx="373" cy="246" rx="4" ry="2.6" fill="#a868d8" opacity="0.7"/>
    <!-- philtrum + open commanding mouth -->
    <path d="M 380 260 L 380 272" stroke="#2a0a44" stroke-width="2.5" stroke-linecap="round"/>
    <path d="M 350 274 Q 380 296 410 274 Q 400 318 380 320 Q 360 318 350 274 Z"
          fill="#2a0a44" stroke="#150522" stroke-width="2"/>
    <!-- inner mouth + tongue -->
    <path d="M 362 286 Q 380 302 398 286 Q 392 312 380 314 Q 368 312 362 286 Z" fill="#7a1f4a"/>
    <path d="M 372 296 Q 380 312 388 296 Q 384 310 380 312 Q 376 310 372 296 Z" fill="#ff5ea0" opacity="0.85"/>
    <!-- fangs -->
    <path d="M 360 278 l 5 14 l 6 -12 Z" fill="#ffffff"/>
    <path d="M 400 278 l -5 14 l -6 -12 Z" fill="#ffffff"/>
  </g>

  <!-- ============ FOREGROUND COSMIC SPARKLE ============ -->
  <g>
    <g transform="translate(140 360)" fill="#ffffff" opacity="0.9">
      <path d="M 0 -10 L 2 -2 L 10 0 L 2 2 L 0 10 L -2 2 L -10 0 L -2 -2 Z"/>
    </g>
    <g transform="translate(620 360)" fill="#ffffff" opacity="0.9">
      <path d="M 0 -10 L 2 -2 L 10 0 L 2 2 L 0 10 L -2 2 L -10 0 L -2 -2 Z"/>
    </g>
    <g transform="translate(110 200)" fill="#ffd86a" opacity="0.85">
      <path d="M 0 -7 L 1.6 -1.6 L 7 0 L 1.6 1.6 L 0 7 L -1.6 1.6 L -7 0 L -1.6 -1.6 Z"/>
    </g>
    <g transform="translate(650 210)" fill="#ffd86a" opacity="0.85">
      <path d="M 0 -7 L 1.6 -1.6 L 7 0 L 1.6 1.6 L 0 7 L -1.6 1.6 L -7 0 L -1.6 -1.6 Z"/>
    </g>
  </g>
</svg>